<?xml version="1.0" encoding="UTF-8" standalone="no"?>
<!-- Created with Inkscape (http://www.inkscape.org/) -->

<svg
   width="10.840538mm"
   height="11.092213mm"
   viewBox="0 0 10.840538 11.092213"
   version="1.1"
   id="svg5"
   sodipodi:docname="C:\Users\esanc\AppData\Local\Temp\ink_ext_XXXXXX.svgOOOP11"
   xmlns:inkscape="http://www.inkscape.org/namespaces/inkscape"
   xmlns:sodipodi="http://sodipodi.sourceforge.net/DTD/sodipodi-0.dtd"
   xmlns="http://www.w3.org/2000/svg"
   xmlns:svg="http://www.w3.org/2000/svg">
  <sodipodi:namedview
     id="namedview7"
     pagecolor="#ffffff"
     bordercolor="#000000"
     borderopacity="0.25"
     inkscape:showpageshadow="2"
     inkscape:pageopacity="0.0"
     inkscape:pagecheckerboard="0"
     inkscape:deskcolor="#d1d1d1"
     inkscape:document-units="mm"
     showgrid="false"
     inkscape:zoom="0.73851712"
     inkscape:cx="396.74097"
     inkscape:cy="453.61169"
     inkscape:window-width="1920"
     inkscape:window-height="1009"
     inkscape:window-x="-8"
     inkscape:window-y="-8"
     inkscape:window-maximized="1"
     inkscape:current-layer="layer1" />
  <defs
     id="defs2" />
  <g
     inkscape:label="Layer 1"
     inkscape:groupmode="layer"
     id="g28"
     transform="translate(-82.593309,-42.515658)">
    <g
       id="layer1"
       transform="matrix(0.264583,0,0,0.264583,-68.721,-58.594)"
       inkscape:label="location-icon.svg">
      <g
         transform="matrix(0.46581009,0,0,0.46581009,569.09315,379.81817)"
         inkscape:label="Noun_29964_cc.svg"
         id="g258">
        <path
           d="m 58.296,60.82 c 0.43,0.286 0.923,0.43 1.418,0.43 0.495,0 0.99,-0.144 1.418,-0.43 0.873,-0.583 21.4,-14.378 28.963,-28.235 1.87,-2.898 2.858,-6.245 2.858,-9.688 C 92.953,13.027 84.923,5 75.056,5 67.799,5 62.426,11.02 59.716,14.167 57.003,11.02 51.63,5 44.375,5 c -9.87,0 -17.9,8.027 -17.9,17.897 0,3.442 0.99,6.79 2.858,9.688 7.56,13.857 28.09,27.652 28.962,28.234 z M 44.376,10.11 c 5.11,0 9.387,4.975 11.686,7.648 1.428,1.662 2.215,2.58 3.653,2.58 1.438,0 2.225,-0.918 3.655,-2.58 2.297,-2.674 6.573,-7.648 11.687,-7.648 7.05,0 12.784,5.736 12.784,12.785 0,2.48 -0.72,4.896 -2.082,6.98 -0.038,0.058 -0.075,0.12 -0.108,0.18 -5.84,10.788 -21.186,22.17 -25.934,25.524 -4.748,-3.353 -20.092,-14.735 -25.934,-25.522 -0.034,-0.062 -0.07,-0.123 -0.108,-0.182 -1.362,-2.083 -2.083,-4.497 -2.083,-6.98 0,-7.047 5.734,-12.784 12.785,-12.784 z"
           id="path254" />
        <path
           d="m 90.46,60.2 c -4.675,-2.738 -8.596,1.324 -10.073,2.852 -3.113,3.225 -6.863,6.413 -8.76,7.98 -0.807,-0.362 -1.696,-0.567 -2.632,-0.576 -5.783,-0.31 -14.897,-1.354 -17.178,-2.71 -2.45,-1.457 -4.414,-2.88 -6.145,-4.134 -4.975,-3.606 -8.903,-6.452 -18.686,-6.452 -2.836,0 -5.322,0.786 -7.727,1.548 -2.47,0.782 -4.8,1.52 -7.614,1.52 -3.103,0 -5.625,2.523 -5.625,5.626 V 80.17 c 0,3.103 2.523,5.625 5.626,5.625 5.348,0 13.71,0.275 15.554,0.89 3.325,1.11 11.118,5.73 13.84,7.416 0.035,0.022 0.07,0.044 0.105,0.063 0.985,0.547 2.102,0.837 3.23,0.837 h 26 c 2.752,0 5.81,-2.546 6.872,-4.307 3.41,-5.657 15.633,-21.05 15.756,-21.205 0.11,-0.14 0.205,-0.29 0.284,-0.448 1.584,-3.168 0.368,-6.97 -2.826,-8.84 z M 70.375,89.886 h -26 c -0.246,0 -0.49,-0.06 -0.706,-0.17 -0.96,-0.595 -10.42,-6.404 -14.85,-7.88 -3.295,-1.098 -14.884,-1.154 -17.172,-1.154 -0.283,0 -0.513,-0.228 -0.513,-0.51 V 65.853 c 0,-0.284 0.23,-0.513 0.513,-0.513 3.602,0 6.554,-0.935 9.155,-1.758 2.223,-0.703 4.14,-1.31 6.186,-1.31 8.124,0 10.97,2.062 15.686,5.48 1.82,1.317 3.882,2.81 6.53,4.388 1.33,0.79 3.533,1.412 6.003,1.895 5.31,1.038 11.848,1.438 13.58,1.53 0.043,0.003 0.088,0.003 0.134,0.003 0.844,0 1.533,0.688 1.533,1.535 0,0.846 -0.688,1.532 -1.534,1.532 -0.046,0 -0.09,0.003 -0.136,0.005 l -19.348,1.018 c -1.54,-0.056 -5.177,-2.63 -7.592,-4.34 -0.625,-0.443 -1.235,-0.87 -1.835,-1.283 -1.308,-0.904 -2.556,-1.716 -3.698,-2.287 -1.263,-0.635 -2.798,-0.12 -3.43,1.143 -0.632,1.263 -0.12,2.8 1.144,3.432 1.317,0.657 3.04,1.878 4.865,3.17 3.836,2.716 7.46,5.282 10.598,5.282 l 0.135,-0.003 19.373,-1.02 c 3.63,-0.04 6.573,-3.008 6.573,-6.646 0,-0.823 -0.15,-1.61 -0.426,-2.34 2.05,-1.7 5.745,-4.867 8.924,-8.157 2.178,-2.256 3.047,-2.44 3.812,-1.992 0.678,0.398 1.175,1.175 0.913,1.954 -1.7,2.144 -12.558,15.898 -15.924,21.485 -0.45,0.74 -1.95,1.772 -2.496,1.83 z"
           id="path256" />
      </g>
    </g>
  </g>
</svg>
