<?xml version="1.0" encoding="UTF-8" standalone="no"?>
<!-- Created with Inkscape (http://www.inkscape.org/) -->

<svg
   width="25.246473mm"
   height="27.615309mm"
   viewBox="0 0 25.246473 27.615309"
   version="1.1"
   id="svg5"
   sodipodi:docname="drawing.svg"
   inkscape:version="1.2.2 (732a01da63, 2022-12-09)"
   inkscape:dataloss="true"
   xmlns:inkscape="http://www.inkscape.org/namespaces/inkscape"
   xmlns:sodipodi="http://sodipodi.sourceforge.net/DTD/sodipodi-0.dtd"
   xmlns:xlink="http://www.w3.org/1999/xlink"
   xmlns="http://www.w3.org/2000/svg"
   xmlns:svg="http://www.w3.org/2000/svg">
  <sodipodi:namedview
     id="namedview7"
     pagecolor="#ffffff"
     bordercolor="#000000"
     borderopacity="0.25"
     inkscape:showpageshadow="2"
     inkscape:pageopacity="0.0"
     inkscape:pagecheckerboard="0"
     inkscape:deskcolor="#d1d1d1"
     inkscape:document-units="mm"
     showgrid="false"
     inkscape:zoom="0.71624579"
     inkscape:cx="179.40769"
     inkscape:cy="349.74028"
     inkscape:window-width="1920"
     inkscape:window-height="991"
     inkscape:window-x="-9"
     inkscape:window-y="-9"
     inkscape:window-maximized="1"
     inkscape:current-layer="layer1" />
  <defs
     id="defs2">
    <linearGradient
       id="linearGradient3415">
      <stop
         id="stop3417"
         style="stop-color:#1a1a1a"
         offset="0" />
      <stop
         id="stop3419"
         style="stop-color:#2b2b2b"
         offset="1" />
    </linearGradient>
    <linearGradient
       id="linearGradient2320">
      <stop
         id="stop2322"
         style="stop-color:#6a3c1d"
         offset="0" />
      <stop
         id="stop2324"
         style="stop-color:#8f5127"
         offset="1" />
    </linearGradient>
    <linearGradient
       id="linearGradient2338">
      <stop
         id="stop2340"
         style="stop-color:#b1b1b1"
         offset="0" />
      <stop
         id="stop2342"
         style="stop-color:#e4e4e4"
         offset="1" />
    </linearGradient>
    <linearGradient
       id="linearGradient2369"
       y2="114.79"
       xlink:href="#linearGradient2338"
       gradientUnits="userSpaceOnUse"
       x2="81.459"
       y1="86.414001"
       x1="50.27"
       inkscape:collect="always" />
    <linearGradient
       id="linearGradient2374"
       y2="89.717003"
       xlink:href="#linearGradient2338"
       gradientUnits="userSpaceOnUse"
       x2="71.061996"
       y1="78.954002"
       x1="52.959999"
       inkscape:collect="always" />
    <linearGradient
       id="linearGradient2378"
       y2="68.190002"
       xlink:href="#linearGradient2338"
       gradientUnits="userSpaceOnUse"
       x2="58.220001"
       y1="84.823997"
       x1="48.556999"
       inkscape:collect="always" />
    <linearGradient
       id="linearGradient2382"
       y2="80.482002"
       xlink:href="#linearGradient2338"
       gradientUnits="userSpaceOnUse"
       x2="60.910999"
       y1="70.697998"
       x1="60.787998"
       inkscape:collect="always" />
    <linearGradient
       id="linearGradient2969"
       y2="77.974998"
       xlink:href="#linearGradient2320"
       gradientUnits="userSpaceOnUse"
       x2="81.947998"
       y1="68.924004"
       x1="74.975998"
       inkscape:collect="always" />
    <linearGradient
       id="linearGradient3179"
       y2="70.918999"
       xlink:href="#linearGradient2320"
       gradientUnits="userSpaceOnUse"
       x2="76.454002"
       y1="63.395"
       x1="76.454002"
       inkscape:collect="always" />
    <linearGradient
       id="linearGradient3183"
       y2="67.027"
       gradientUnits="userSpaceOnUse"
       x2="81.038002"
       y1="63.784"
       x1="76.280998"
       inkscape:collect="always">
      <stop
         id="stop2890"
         style="stop-color:#007dff"
         offset="0" />
      <stop
         id="stop2892"
         style="stop-color:#58abff"
         offset="1" />
    </linearGradient>
    <linearGradient
       id="linearGradient3382"
       y2="53.226002"
       xlink:href="#linearGradient2320"
       gradientUnits="userSpaceOnUse"
       x2="45.286999"
       y1="53.226002"
       x1="41.058998"
       inkscape:collect="always" />
    <linearGradient
       id="linearGradient3386"
       y2="55.395"
       xlink:href="#linearGradient2320"
       gradientUnits="userSpaceOnUse"
       x2="88.682999"
       y1="55.395"
       x1="84.233002"
       inkscape:collect="always" />
    <linearGradient
       id="linearGradient3398"
       y2="19.844"
       gradientUnits="userSpaceOnUse"
       x2="86.903"
       y1="51"
       x1="57.416"
       inkscape:collect="always">
      <stop
         id="stop3394"
         style="stop-color:#4a585b"
         offset="0" />
      <stop
         id="stop3396"
         style="stop-color:#5e7074"
         offset="1" />
    </linearGradient>
    <linearGradient
       id="linearGradient3402"
       y2="47.939999"
       xlink:href="#linearGradient2320"
       gradientUnits="userSpaceOnUse"
       x2="49.292999"
       y1="37.480999"
       x1="35.161999"
       inkscape:collect="always" />
    <linearGradient
       id="linearGradient3408"
       y2="46.493999"
       xlink:href="#linearGradient2320"
       gradientUnits="userSpaceOnUse"
       x2="38.834"
       y1="41.82"
       x1="37.721001"
       inkscape:collect="always" />
    <linearGradient
       id="linearGradient3421"
       y2="61.25"
       xlink:href="#linearGradient3415"
       gradientUnits="userSpaceOnUse"
       x2="55.625"
       y1="56.375"
       x1="54.625"
       inkscape:collect="always" />
    <linearGradient
       id="linearGradient3425"
       y2="66.371002"
       xlink:href="#linearGradient3415"
       gradientUnits="userSpaceOnUse"
       x2="45.255001"
       y1="54.129002"
       x1="38.801998"
       inkscape:collect="always" />
    <linearGradient
       id="linearGradient3429"
       y2="60.780998"
       xlink:href="#linearGradient3415"
       gradientUnits="userSpaceOnUse"
       x2="49.144001"
       y1="66.482002"
       x1="47.508999"
       inkscape:collect="always" />
    <linearGradient
       id="linearGradient3433"
       y2="63.653"
       xlink:href="#linearGradient3415"
       gradientUnits="userSpaceOnUse"
       x2="35.355"
       y1="62.018002"
       x1="34.780998"
       inkscape:collect="always" />
    <linearGradient
       id="linearGradient3437"
       y2="63.321999"
       xlink:href="#linearGradient2320"
       gradientUnits="userSpaceOnUse"
       x2="42.338001"
       y1="59.167999"
       x1="39.819"
       inkscape:collect="always" />
    <linearGradient
       id="linearGradient3441"
       y2="66.194"
       gradientUnits="userSpaceOnUse"
       x2="31.245001"
       y1="64.514999"
       x1="30.361"
       inkscape:collect="always">
      <stop
         id="stop3195"
         style="stop-color:#c2a05c"
         offset="0" />
      <stop
         id="stop3197"
         style="stop-color:#d6be91"
         offset="1" />
    </linearGradient>
    <linearGradient
       id="linearGradient3449"
       y2="61.112"
       xlink:href="#linearGradient3415"
       gradientUnits="userSpaceOnUse"
       x2="40.924"
       y1="59.278"
       x1="39.112"
       inkscape:collect="always" />
    <filter
       id="filter3570"
       inkscape:collect="always"
       x="-0.049036294"
       y="-0.074654363"
       width="1.0980726"
       height="1.1493087">
      <feGaussianBlur
         id="feGaussianBlur3572"
         stdDeviation="1.6277848"
         inkscape:collect="always" />
    </filter>
  </defs>
  <g
     inkscape:label="Layer 1"
     inkscape:groupmode="layer"
     id="g85"
     transform="translate(-1.6325162,-4.7955669)">
    <g
       inkscape:label="nicubunu-RPG-map-symbols-Wishing-Well.svg"
       transform="scale(0.264583)"
       id="g83">
      <g
         id="layer2"
         inkscape:label="colors"
         inkscape:export-filename="well.svg"
         inkscape:export-xdpi="96"
         inkscape:export-ydpi="96">
        <path
           id="path3451"
           sodipodi:nodetypes="cccccccccccccccccccccccccccccccccccccccccccccccccccccccccccccccc"
           style="fill:#000000;fill-opacity:0.68493;fill-rule:evenodd;filter:url(#filter3570)"
           d="m 59.828,66.261 c -14.06,3.633 -28.119,7.265 -42.179,10.897 6.868,3.934 13.737,7.868 20.605,11.802 10.093,-2.945 20.138,-5.925 30.262,-8.847 -10.061,2.99 -20.219,5.908 -30.239,8.927 L 17.844,77.433 c -4.599,2.75 -3.678,6.744 -7.223,9.765 -1.6412,1.417 0.701,2.737 3.418,1.457 4.193,-0.458 9.975,-2.196 7.172,-4.683 0.932,0.611 2.303,3.895 1.369,5.556 -1.381,1.988 0.75,4.511 -2.499,6.065 -2.654,1.097 0.646,2.271 1.998,0.711 6.708,-0.57 4.027,3.726 6.895,5.376 2.421,2.26 6.792,3.27 8.334,5.8 2.737,2.79 4.178,3.77 6.843,6.57 2.118,1.8 8.776,2.89 13.551,4.47 11.647,0.71 18.049,-4.03 26.262,-7.73 2.946,-1.04 7.186,-2.51 5.326,-4.65 -2.786,-3.93 0.353,-4.81 -2.368,-8.756 3.611,-3.223 -0.605,-7.679 -7.339,-9.519 -4.562,-2.215 -4.289,-5.46 -7.125,-8.067 -3.613,-1.302 4.853,-1.316 5.745,-2.423 4.661,-2.042 -3.559,-4.105 -6.361,-5.622 -4.015,-1.825 -7.978,-3.678 -12.014,-5.492 z M 28.413,84.888 c 1.883,0.511 6.833,4.097 2.133,2.728 -1.205,-0.82 -1.469,-1.814 -2.133,-2.728 z m 41.713,-3.931 c 0.946,0.116 -0.518,0.528 0,0 z m 0.535,1.335 c 0.488,0.534 -1.23,0.686 0,0 z m -0.722,1.565 c 0.037,3.161 -7.925,2.591 -12.173,3.437 -6.361,1.437 -11.869,3.57 -18.384,4.877 10.163,-2.79 20.371,-5.543 30.557,-8.314 z m -38.623,5.051 c 1.366,0.172 -0.352,0.453 0,0 z m 3.603,-0.167 0.621,0.334 z m -2.831,0.685 c 0.774,0.405 1.859,1.503 0.512,0.44 z m 3.6,1.171 c 1.597,0.689 -0.291,0.407 0,0 z m 0.053,2.234 0.229,0.381 z m 49.092,0.009 c -0.729,0.751 -1.369,0.838 0,0 z m -4.628,2.791 c -0.964,0.607 -1.729,0.481 0,0 z m -43.023,5.619 c 2.314,-0.07 8.619,0.4 2.745,0.31 -0.928,-0.04 -1.863,-0.13 -2.745,-0.31 z m 10.988,0.28 c 2.052,-0.28 3.014,0.13 0,0 z m 35.133,-2.322 c -5.84,2.692 -13.782,4.042 -21.683,4.942 7.649,-1.22 15.477,-2.45 21.683,-4.942 z m -42.376,5.772 c 1.721,0.03 2.506,0.26 0,0 z m 8.195,0.16 c 1.433,-0.19 2.399,0.14 0,0 z" />
        <path
           id="path2367"
           sodipodi:nodetypes="cccccccccccccccc"
           style="fill:url(#linearGradient2369);fill-rule:evenodd"
           d="m 42.197,110.26 -0.856,-25.436 5.748,2.569 6.728,1.59 15.533,1.101 10.029,-1.468 5.504,-1.345 7.217,-4.037 v 1.59 L 91.488,111 l -6.605,3.18 c -4.429,2.74 -9.198,3.44 -13.943,4.28 l -10.519,-0.12 -9.785,-2.69 -5.87,-3.43 z" />
        <path
           id="path2372"
           style="fill:url(#linearGradient2374);fill-rule:evenodd"
           d="m 35.715,71.37 2.324,3.18 7.094,4.893 10.029,2.568 11.986,0.612 9.174,-0.856 8.439,-2.202 5.993,-3.18 2.324,-2.079 2.324,-4.526 0.367,7.461 -2.813,5.504 -4.526,2.691 -6.237,2.446 L 68.371,89.717 56.997,89.35 49.413,88.127 44.643,86.292 40.24,84.335 36.815,80.911 35.47,78.22 Z" />
        <path
           id="path2376"
           sodipodi:nodetypes="ccccccccccccccsccc"
           style="fill:url(#linearGradient2378);fill-rule:evenodd"
           d="m 35.837,67.456 v 2.691 l 1.59,4.281 4.892,3.547 10.764,3.547 8.806,1.101 5.137,0.122 8.806,-0.856 5.871,-1.223 7.584,-3.302 4.525,-3.67 1.468,-3.18 -2.813,-6.36 -1.59,-1.223 C 86.745,62.18 85.684,58.933 82.008,57.969 78.43,57.031 73.217,56.129 66.659,58.528 l -16.634,3.914 z" />
        <path
           id="path2380"
           style="fill:url(#linearGradient2382);fill-rule:evenodd"
           d="m 46.478,70.025 2.079,-4.281 3.67,-2.202 6.36,-1.1 7.828,-0.612 -0.123,2.691 2.446,11.864 H 62.99 l -7.583,-0.978 -5.504,-1.713 -3.18,-1.834 z" />
        <path
           id="path2384"
           sodipodi:nodetypes="cccccccccccccccc"
           style="fill:#000000;fill-opacity:0.15686;fill-rule:evenodd"
           d="m 42.197,110.26 -0.856,-25.436 5.748,2.569 6.728,1.59 15.533,1.101 10.029,-1.468 5.504,-1.345 7.217,-4.037 v 1.59 L 91.488,111 l -6.605,3.18 c -4.647,2.66 -9.295,3.9 -13.943,4.28 l -10.519,-0.12 -9.785,-2.69 -5.87,-3.43 z" />
        <path
           id="path2386"
           style="fill:#000000;fill-opacity:0.15686;fill-rule:evenodd"
           d="m 35.715,71.37 2.324,3.18 7.094,4.893 10.029,2.568 11.986,0.612 9.174,-0.856 8.439,-2.202 5.993,-3.18 2.324,-2.079 2.324,-4.526 0.367,7.461 -2.813,5.504 -4.526,2.691 -6.237,2.446 L 68.371,89.717 56.997,89.35 49.413,88.127 44.643,86.292 40.24,84.335 36.815,80.911 35.47,78.22 Z" />
        <path
           id="path2388"
           style="fill:#000000;fill-opacity:0.15686;fill-rule:evenodd"
           d="m 46.478,70.025 2.079,-4.281 3.67,-2.202 6.36,-1.1 7.828,-0.612 -0.123,2.691 2.446,11.864 H 62.99 l -7.583,-0.978 -5.504,-1.713 -3.18,-1.834 z" />
        <path
           id="path2967"
           style="fill:url(#linearGradient2969);fill-rule:evenodd"
           d="m 68.861,78.464 -2.813,-13.943 2.079,1.223 3.791,1.101 3.058,0.122 5.871,-0.244 1.957,-0.612 3.425,-1.468 -1.713,13.21 -2.079,0.856 -6.605,1.712 -4.158,-0.856 z" />
        <path
           id="path3177"
           sodipodi:nodetypes="cccccccccccccc"
           style="fill:url(#linearGradient3179);fill-rule:evenodd"
           d="m 66.681,62.789 4.584,-2.162 3.978,-0.951 3.46,0.173 5.362,1.297 2.421,1.903 0.071,0.856 -2.925,1.998 -2.854,0.692 -5.016,0.519 -6.659,-0.952 -2.595,-1.384 -0.086,-1.124 z" />
        <path
           id="path3181"
           sodipodi:nodetypes="cccccccccccc"
           style="fill:url(#linearGradient3183);fill-rule:evenodd"
           d="m 68.497,65.643 1.384,-0.951 3.027,-1.47 3.027,-0.779 2.768,0.26 1.643,0.259 1.903,0.433 3.2,1.47 c -1.737,1.098 -3.47,2.207 -5.881,1.73 L 74.724,67.027 71.1,66.704 Z" />
        <path
           id="path3376"
           sodipodi:nodetypes="cccccccccccccc"
           style="fill:#1a1a1a;fill-rule:evenodd"
           d="m 66.092,68.045 4.642,1.102 7.396,0.236 4.721,-0.787 3.541,-0.944 0.236,0.865 -0.315,1.181 -3.541,0.944 -5.901,0.865 -7.396,-0.472 -3.068,-0.787 -0.63,-0.393 -0.315,-0.944 z" />
        <path
           id="path3378"
           sodipodi:nodetypes="ccccccccccccccc"
           style="fill:#1a1a1a;fill-rule:evenodd"
           d="m 67.429,74.812 3.069,0.944 3.226,0.315 3.383,-0.079 2.99,-0.393 4.091,-0.866 h 1.181 l -0.079,1.495 -1.495,0.472 -3.619,0.787 -2.282,0.315 H 73.488 L 70.105,77.251 67.823,76.7 Z" />
        <path
           id="path3380"
           sodipodi:nodetypes="cccccccc"
           style="fill:url(#linearGradient3382);fill-rule:evenodd"
           d="m 39.39,74.256 0.89,-43.507 5.898,13.909 0.222,29.82 -1.78,0.446 -2.003,0.445 -2.225,-0.445 z" />
        <path
           id="path3384"
           sodipodi:nodetypes="cccccccccccccc"
           style="fill:url(#linearGradient3386);fill-rule:evenodd"
           d="m 83.009,60.347 0.333,-5.675 1.669,-0.556 1.781,-2.448 0.667,-2.782 -1.112,-2.448 3.894,-0.89 V 64.13 l -1.763,0.985 -2.754,0.128 0.701,-1.302 -0.746,-1.814 -2.225,-1.224 z" />
        <path
           id="path3388"
           style="fill:url(#linearGradient3398);fill-rule:evenodd"
           d="M 52.631,55.674 41.282,28.635 87.348,18.509 101.03,42.432 Z" />
        <path
           id="path3400"
           sodipodi:nodetypes="cccccccc"
           style="fill:url(#linearGradient3402);fill-rule:evenodd"
           d="m 25.37,50.221 14.688,-21.03 h 1.224 L 52.631,55.896 50.517,56.619 40.503,31.305 27.595,49.887 Z" />
        <path
           id="path3406"
           style="fill:url(#linearGradient3408);fill-rule:evenodd"
           d="M 27.818,49.554 40.392,31.194 39.724,47.662 Z" />
        <path
           id="path3410"
           style="fill:#000000;fill-opacity:0.15686;fill-rule:evenodd"
           d="M 27.818,49.554 40.392,31.194 39.724,47.662 Z" />
        <path
           id="path3404"
           sodipodi:nodetypes="cccccccc"
           style="fill:#000000;fill-opacity:0.15686;fill-rule:evenodd"
           d="m 25.37,50.221 14.688,-21.03 h 1.224 L 52.631,55.896 50.629,56.452 40.503,31.305 27.595,49.887 Z" />
        <path
           id="path3413"
           style="fill:url(#linearGradient3421);fill-rule:evenodd"
           d="m 86.84,46.358 0.367,1.223 0.184,2.691 -2.08,3.547 -35.836,8.623 -0.062,-3.425 -1.162,-4.831 1.346,0.061 0.917,2.446 2.569,-1.04 32.045,-8.806 z" />
        <path
           id="path3423"
           sodipodi:nodetypes="ccccccccccsccscc"
           style="fill:url(#linearGradient3425);fill-rule:evenodd"
           d="m 40.261,50.174 1.458,-0.044 2.696,1.502 2.166,3.315 0.574,2.121 0.751,4.022 -0.353,3.624 -1.856,4.331 -3.005,2.165 -1.415,0.531 c 0,0 -1.546,-0.221 -1.944,-0.398 C 38.935,71.166 35.4,65.775 35.4,65.775 l -0.531,-5.083 c 0,0 0.398,-3.889 0.531,-4.375 0.132,-0.486 1.988,-3.845 1.988,-3.845 z" />
        <path
           id="path3427"
           style="fill:url(#linearGradient3429);fill-rule:evenodd"
           d="m 40.747,49.953 1.547,-0.044 2.077,0.53 1.9,1.282 1.901,2.563 0.884,2.608 0.441,4.242 -0.662,4.464 -1.901,3.27 c 0,0 -1.016,1.414 -1.193,1.547 -0.177,0.133 -1.282,0.619 -1.282,0.619 l -1.149,0.442 -1.812,0.176 c 0,0 0.752,-0.397 1.326,-0.574 0.575,-0.177 2.21,-1.679 2.21,-1.679 l 1.856,-3.094 0.884,-2.652 V 61.311 L 47.42,57.599 46.271,53.931 44.68,51.809 42.957,50.704 41.233,50.174 Z" />
        <path
           id="path3431"
           style="fill:url(#linearGradient3433);fill-rule:evenodd"
           d="m 32.483,63.079 4.331,-1.945 1.768,-1.06 0.751,2.253 c 0,0 -1.503,0.177 -1.945,0.442 -0.442,0.266 -3.138,1.812 -3.138,1.812 l -1.016,0.752 0.044,-1.282 z" />
        <path
           id="path3435"
           style="fill:url(#linearGradient3437);fill-rule:evenodd"
           d="m 38.272,62.814 0.751,1.812 1.37,0.972 1.017,0.221 0.751,-0.31 0.663,-0.839 0.707,-2.387 -0.088,-3.138 -0.84,-1.856 -1.635,-1.06 h -1.016 l -1.37,0.795 -0.663,1.282 -0.221,2.254 1.281,-0.575 0.133,2.342 z" />
        <path
           id="path3439"
           style="fill:url(#linearGradient3441);fill-rule:evenodd"
           d="m 28.505,64.67 3.889,-1.37 1.017,0.618 -0.354,1.547 -3.226,2.122 -1.061,-1.37 z" />
        <path
           id="path3443"
           style="fill:#000000;fill-opacity:0.15686;fill-rule:evenodd"
           d="m 28.505,64.714 1.414,0.442 0.221,0.442 0.221,1.149 -0.397,0.751 -1.149,-1.414 -0.354,-0.884 z" />
        <path
           id="path3445"
           style="fill:#000000;fill-opacity:0.15686;fill-rule:evenodd"
           d="m 40.703,56.361 1.193,1.635 0.84,1.459 0.221,0.795 -0.133,2.387 -1.635,2.43 -0.53,0.619 1.016,0.044 0.884,-0.707 0.751,-1.812 0.133,-1.988 0.088,-1.37 -0.707,-2.078 -0.751,-0.972 z" />
        <path
           id="path3447"
           style="fill:url(#linearGradient3449);fill-rule:evenodd"
           d="m 39.112,59.632 0.221,2.695 1.281,-0.309 1.017,-0.751 0.221,-0.884 -0.707,-1.105 -1.149,0.044 z" />
      </g>
      <g
         id="layer1"
         inkscape:label="outline">
        <path
           id="path2308"
           style="fill:#000000"
           d="M 87.25,18.125 39.75,28.812 24.875,50.5 39.594,48.062 39.562,50.125 c -3.881,2.175 -4.832,6.664 -5.031,10.813 0,0.372 0.033,0.732 0.063,1.093 -0.816,0.367 -1.637,0.695 -2.469,1.031 l -3.875,1.563 c -0.404,1.37 1.046,2.289 1.562,3.25 l 3.532,-2.219 c 0.034,-0.122 0.066,-0.229 0.094,-0.344 0.48,-0.302 0.955,-0.605 1.437,-0.874 0.202,0.992 0.486,1.928 0.844,2.781 -0.684,1.332 -0.615,2.68 -0.407,4.093 -0.014,1.879 0.2,3.775 0,5.907 0.136,3.726 2.979,6.007 5.844,7.875 l 1.032,25.496 c 9.119,7.05 17.392,8.8 28.593,8.13 9.249,-1.16 16.015,-4.66 21.063,-7.47 l 0.562,-27.875 c 1.979,-1.552 3.172,-3.651 3.406,-6.156 -0.017,-2.483 -0.136,-4.966 -0.187,-7.438 -0.114,-3.467 -2.674,-5.708 -5.313,-7.531 L 90.188,45.688 101.59,42.5 Z M 86.938,19.062 100.59,42.094 52.656,55.5 42.219,29.281 Z m -11.063,3.5 -0.281,0.063 1.281,2.156 -2.937,0.625 -0.032,0.282 3.094,-0.719 2.125,3.593 0.219,0.032 -2.125,-3.688 8.093,-1.875 h -0.156 l -8.031,1.688 z m -11.969,3.719 -0.468,0.094 c 0.102,0.223 0.769,1.593 1.156,2.406 L 46,33.156 44.781,30.125 44.344,30 l 1.312,3.219 -0.781,0.187 0.219,0.25 0.656,-0.156 7.781,19.219 h 0.375 L 46.125,33.406 64.719,29.062 c 0.958,2.016 1.542,3.229 2.687,5.626 l -5.468,1.281 0.218,0.25 5.375,-1.281 c 0.845,1.768 2.031,4.281 2.031,4.281 l 0.344,0.062 c 0,0 -1.177,-2.558 -2.031,-4.406 l 19.344,-4.563 4.906,9.219 -6.219,1.813 0.313,0.187 6.062,-1.719 0.969,1.813 0.25,0.031 -1,-1.906 3.344,-0.969 -0.188,-0.25 -3.281,0.938 -4.844,-9.219 4.344,-1.031 -0.25,-0.188 -4.219,1 -1.812,-3.469 -0.375,0.032 1.875,3.5 -19.344,4.531 c -1.126,-2.438 -1.67,-3.657 -2.594,-5.656 l 3.469,-0.813 -0.25,-0.25 -3.344,0.782 c -0.371,-0.803 -1.03,-2.201 -1.125,-2.407 z m -23.718,3.188 1.031,0.031 10.875,26.406 -1.282,0.5 L 40.719,30.25 c -0.378,-0.156 -0.134,0.162 -0.469,-0.094 l -12.969,19.406 -1.375,0.407 z m 0.25,2.219 5.281,12.624 -0.188,6.626 c -1.366,-0.918 -3.08,-1.354 -5.156,-1.063 l 0.063,0.063 c -0.082,-0.001 -0.171,-0.036 -0.25,-0.032 z M 39.906,32.344 39.625,47 28.375,49.25 Z m 45.813,2.25 -10.281,2.468 -0.844,-1.906 -0.375,-0.031 0.906,2.031 -1.594,0.375 0.313,0.188 1.375,-0.344 2.656,5.875 -16.469,4.031 -4.844,-11.969 -0.374,-0.093 5,12.125 -3.376,0.812 0.376,0.063 3.062,-0.75 1.312,3.219 0.282,0.093 -1.375,-3.375 16.469,-4 1.406,3.125 0.25,0.031 -1.406,-3.218 3.156,-0.782 -0.156,-0.124 -3.063,0.75 -2.594,-5.876 10.25,-2.531 z m -47.438,3.875 -4.343,7.062 -2,-0.031 -0.438,0.406 2.25,-0.031 -0.406,0.625 0.344,0.219 0.5,-0.875 3.937,-0.063 -0.156,0.375 0.031,0.094 0.219,-0.469 h 0.75 l 0.25,-0.219 h -0.875 l 0.781,-1.593 -0.25,-0.125 -0.656,1.718 -3.844,-0.031 3.969,-7.031 z m 51.157,7.312 0.406,18.063 c -1.138,0.957 -2.52,1.305 -3.25,1.25 0.53,-1.595 -0.21,-2.514 -1.219,-3.594 -0.251,-0.889 -0.851,-1.742 -1.656,-2.5 l 0.031,-4.156 1.75,-0.438 c 1.979,-2.422 2.683,-4.949 1.656,-7.875 z m -43.126,0.625 2.938,7.532 -1,0.218 C 47.757,53.177 47.131,52.323 46.375,51.625 Z M 86.5,46.812 c 1.329,2.429 0.084,4.856 -1.469,6.688 L 82.5,54.125 81.656,48.062 Z m -5.469,1.563 0.938,5.781 -3.25,0.844 -1.407,-5.781 z m -4.25,1.063 1.469,5.687 L 75.594,56 74.312,50.125 Z m -35.062,0.656 c 10.32,-0.004 8.97,21.193 0.656,21.437 2.37,-0.721 4.348,-2.756 5.313,-6.406 0.798,-3.01 0.279,-6.351 -0.563,-9.656 -0.773,-2.989 -3.168,-4.837 -5.406,-5.375 z m -0.438,0.187 c 1.534,0 3.031,1.474 4.125,3.313 1.095,1.839 2.25,4.724 2.25,7.594 -0.146,4.308 -1.714,9.096 -6.281,10.343 -3.55,-0.699 -5.042,-4.104 -5.719,-7.5 0.75,-0.389 1.5,-0.747 2.282,-1.062 0.668,2.09 1.393,2.674 2.781,2.875 1.865,0.407 2.481,-1.323 3,-4.719 0.117,-3.246 -1.69,-5.459 -3.907,-5.094 v 0.031 c -0.021,0 -0.041,0.001 -0.062,0 -0.92,0.461 -1.486,0.95 -2.031,1.782 -0.308,0.648 -0.317,1.776 -0.188,2.656 -0.726,0.446 -1.484,0.855 -2.25,1.219 -0.033,-0.329 -0.069,-0.662 -0.093,-0.969 0.059,-4.385 1.536,-9.239 6.093,-10.469 z m 32.531,0 0.969,5.688 -1.906,0.469 -1.313,-5.532 z m -2.874,0.875 1.374,5.594 -2.624,0.562 -1.157,-5.562 z m -2.907,0.875 1.031,5.438 L 66.375,58 65.469,52.594 Z m -3.187,0.844 1.125,5.344 -1.813,0.312 -1.718,-5.093 z m -2.813,0.5 1.469,5.5 -2.438,0.406 -0.406,-5.343 z m -1.875,0.719 0.282,5.437 -2.157,0.407 -0.75,-5.126 z m -10.531,0.781 0.75,1.937 2.719,-0.75 0.25,5.094 -1.719,0.406 L 49,55.031 Z m 33.125,0.187 -0.031,3.126 c -0.576,-0.387 -1.2,-0.715 -1.875,-0.938 -1.206,-0.399 -2.565,-0.658 -3.938,-0.781 z M 56.906,55.125 57.656,60 54,61.094 53.625,55.969 Z m -17,1.281 c 1.352,0.023 2.415,2.407 2.875,4.063 0.274,1.941 -0.752,3.71 -2.219,4.875 -1.323,-0.207 -1.58,-1.465 -2.031,-2.594 0.219,-0.082 0.434,-0.173 0.657,-0.25 l 1.906,-0.406 c 1.173,-0.992 0.85,-1.5 0.75,-2.156 -0.448,-0.965 -0.896,-0.67 -1.344,-1 l -1.438,0.5 c -0.316,0.242 -0.639,0.469 -0.968,0.687 -0.116,-0.662 -0.075,-1.326 0.156,-1.813 0.229,-0.481 0.506,-1.53 1.656,-1.906 z m 1.188,0.125 c 1.552,0.487 2.248,2.261 2.344,4.281 -0.207,2.255 -0.47,4.708 -2.344,4.75 1.635,-1.229 1.957,-2.904 2,-5.124 -0.229,-1.176 -0.839,-3.042 -2,-3.907 z M 76,57.031 c 0.839,-0.036 2.198,0.166 4.875,0.657 0.619,0.113 1.858,0.652 1.937,1.531 -1.743,-0.482 -5.976,-1.555 -7.937,-1.875 0.308,-0.184 0.621,-0.291 1.125,-0.313 z m -26.625,0.438 1.687,4.25 -1.437,0.343 c 0.115,-1.535 0.046,-3.111 -0.25,-4.593 z m 21.563,0.375 c 0.148,-0.014 0.277,-0.008 0.406,0 4.208,0.363 8.045,1.122 11.375,2.156 v 0.438 c -1.79,-0.5 -4.017,-0.813 -6.469,-0.813 -3.073,-0.002 -6.954,0.967 -9.719,2.344 0.037,-0.701 0.538,-2.117 0.969,-2.625 0.939,-0.806 2.399,-1.405 3.438,-1.5 z m -3.532,0.937 c -0.937,0.679 -1.339,2.352 -1.625,2.844 -4.141,0 -7.978,0.45 -11.219,1.219 l -0.624,-1.032 z m -26.937,0.531 c 1.389,0.47 1.809,1.562 0.062,2.376 l -0.937,0.187 -0.219,-2.063 z m 43.25,0.126 c 0.266,0.278 1.09,1.622 1.25,1.906 -0.2,-0.088 -1.029,-0.514 -1.25,-0.594 z m -7.5,0.624 c 3.1,0.262 8.486,0.697 10.281,3.532 -0.263,0.414 -0.626,0.752 -1.031,1.062 -2.968,-1.329 -6.1,-2.41 -8.875,-2.281 -2.788,0.13 -5.653,1.432 -8.188,3.156 -0.04,-0.015 -0.085,-0.015 -0.125,-0.031 -1.112,-0.247 -1.811,-1.552 -1.343,-2.562 2.604,-1.666 6.271,-2.797 9.281,-2.876 z m -37.781,0.407 0.187,1.656 c -2.086,0.729 -3.502,1.81 -5.125,2.844 0.102,-0.625 0.008,-1.141 -0.594,-1.688 2.088,-0.839 4.046,-1.213 5.532,-2.812 z m 15.374,1.375 0.594,1.031 c -1.103,0.267 -2.15,0.566 -3.094,0.906 -0.765,0.276 -1.434,0.582 -2.062,0.907 0.149,-0.623 0.237,-1.255 0.312,-1.907 z m 12.25,0.344 -0.562,1.656 0.75,3.75 c -0.977,0.454 -1.01,1.298 -0.719,1.968 l -0.062,-0.093 c -2.225,-0.173 -3.696,-0.118 -5.438,0.031 -1.947,0.167 -3.601,0.53 -4.969,1 l -0.281,-7.25 c 3.685,-0.826 7.546,-0.962 11.281,-1.062 z m 10.563,0.5 c 2.814,-0.088 5.723,0.686 8.5,2.25 -2.412,1.549 -6.507,1.739 -9,1.968 -2.584,-0.022 -5.11,-0.395 -7.5,-1.281 2.424,-1.882 5.155,-2.849 8,-2.937 z m -22.125,0.656 0.312,7.25 c -2.098,0.767 -3.498,1.815 -4.25,2.968 -1.235,-0.525 -2.238,-1.096 -2.968,-1.718 -0.343,-0.292 -0.595,-0.605 -0.813,-0.906 -0.124,-0.35 -0.185,-0.694 -0.219,-1.032 1.065,-1.073 1.851,-2.552 2.376,-4.218 0.722,-0.565 1.576,-1.123 2.624,-1.5 0.958,-0.347 1.947,-0.612 2.938,-0.844 z m 35.812,0.094 c 2.403,1.514 3.795,3.587 4.313,6.343 0,1.268 -0.49,2.504 -1.406,3.688 L 86.25,69.719 C 87.201,69.227 86.565,66.932 86.219,67.5 L 86.5,65.656 c 2.822,-0.079 3.686,-0.898 3.812,-2.218 z m -57.874,0.093 c 0.835,0.439 0.404,1.01 0.531,1.625 -2.159,1.568 -2.224,1.603 -2.594,1.844 -0.093,0.061 -0.13,0.095 -0.313,0.219 -0.824,-0.612 -1.338,-1.54 -1.437,-2.407 z M 30.375,67 c 0.608,-0.666 0.23,-2.286 -1,-1.969 h -0.063 c 0.491,0.169 1.132,1.189 0.844,1.907 z m 36.437,-1.75 c 0.567,0.43 1.29,0.791 2.188,1.094 1.888,0.637 4.44,1.031 7.25,1.031 3.22,0.012 6.45,-0.437 9.281,-2 l -0.375,2.344 c -0.467,0.091 -1.751,0.511 -2.218,0.593 l 0.124,-0.874 -0.281,-0.032 -0.062,0.906 c -1.154,0.185 -2.542,0.417 -3.688,0.532 l -0.062,-0.625 h -0.188 l -0.031,0.625 c -1.122,0.09 -2.713,0.247 -3.812,0.25 -0.022,-0.279 0.099,-0.888 0.062,-1.063 h -0.25 c 0.013,0.062 -0.082,0.902 -0.062,1.094 C 73.525,69.096 71.621,68.87 70.5,68.719 l -0.125,-1.063 -0.313,-0.031 0.157,1.094 c -0.718,-0.126 -2.181,-0.596 -2.875,-0.781 z m 19.563,2.688 c 0.034,0.383 0.251,0.854 -0.281,1.374 -6.681,2.818 -13.052,2.052 -19.594,0.813 -1.275,-0.555 -0.747,-1.585 -0.312,-1.937 5.34,2.606 16.392,1.265 20.187,-0.25 z m -50.063,0.531 c 0.734,1.469 1.571,2.117 2.907,2.969 l -0.125,3.093 c 0.509,0.21 0.875,0.45 1.25,0.657 H 39.25 c -1.9,-1.669 -3.166,-3.837 -2.938,-6.719 z m 26.313,1.187 c 0.553,-0.003 1.129,0.007 1.719,0.032 l 0.031,6.406 C 59.441,75.968 54.998,75.202 51.75,74.031 51.369,73.894 51.004,73.74 50.656,73.594 h 0.063 c 1.098,-1.775 5.094,-3.892 11.906,-3.938 z m 1.969,0.063 c 0.349,0.017 0.7,0.035 1.062,0.062 0.341,0.59 0.898,0.977 1.188,0.688 l 0.844,4.343 C 67.436,75 67.131,74.912 67.531,76 c -0.332,0.008 -1.411,0.125 -1.75,0.125 -0.412,0 -0.812,-0.022 -1.219,-0.031 z m 21.187,0.125 7.281,3.812 C 92.866,73.895 92.67,74.14 92.438,74.375 87.979,78.34 82.23,80.371 76.312,81.438 L 75.438,80.5 c 3.509,0.111 6.771,-0.781 9,-2.469 l 0.156,-0.125 0.031,-0.218 0.187,-1.282 c 0.808,0.378 1.11,-2.247 0.25,-1.937 z m -39.687,0.5 v 3.968 c -1.839,0.475 -4.074,1.846 -6.344,-0.156 l -0.031,-2.344 c 0.697,0.046 1.371,0.011 2.031,-0.124 1.715,0.159 3.169,-0.361 4.344,-1.344 z m 38.594,0.468 -0.594,3.75 c -0.329,0.066 -1.086,0.222 -1.406,0.282 l 0.281,-3.625 c 0.414,-0.095 1.303,-0.303 1.719,-0.407 z m -2.094,0.5 -0.25,3.563 c -0.984,0.169 -2.297,0.397 -3.219,0.5 l -0.094,-3.437 c 1.046,-0.15 2.502,-0.402 3.563,-0.626 z m 12.562,0.032 c -0.105,1.417 -0.05,4.42 0.188,5.687 -0.239,1.017 -0.598,1.93 -1.063,2.781 l -0.437,-5.75 c 0.516,-0.961 1.037,-2.226 1.312,-2.718 z m -27.094,0.062 c 0.618,0.184 1.744,0.314 2.376,0.438 l 0.437,3.625 c -0.554,-0.121 -1.651,-0.461 -2.219,-0.625 z m 2.657,0.469 c 1.017,0.147 2.766,0.328 3.812,0.344 0.016,1.084 0.018,2.542 0.063,3.625 -0.918,-0.054 -2.544,-0.089 -3.469,-0.25 z m 8.031,0.063 0.094,3.468 c -1.053,0.089 -2.924,0.521 -3.938,0.5 -0.022,-1.083 -0.101,-2.573 -0.125,-3.656 1.051,-0.022 2.896,-0.187 3.969,-0.312 z m -32.125,0.343 c 0.074,0.072 0.14,0.152 0.219,0.219 1.09,0.928 2.599,1.732 4.468,2.406 2.228,0.803 4.951,1.418 7.969,1.782 l -3.969,4.843 0.032,0.031 c -4.106,-0.784 -7.793,-1.959 -10.813,-3.25 -1.73,-0.735 -3.449,-1.633 -4.875,-2.781 l 1.688,0.063 c 0.965,0.279 2.302,0.2 5.312,-0.875 z m -10.437,1.063 c 0.583,0.895 1.281,1.657 2.062,2.344 l -0.344,5.406 c -0.748,-1.125 -1.315,-2.396 -1.594,-3.875 0.131,-1.263 -10e-4,-2.589 -0.124,-3.875 z m 57.374,1.218 0.5,5.657 C 90.927,85.429 83.738,87.53 76.781,88.5 l -0.25,-6.406 c 6.108,-0.934 12.051,-2.847 16.625,-7 0.122,-0.124 0.268,-0.307 0.406,-0.532 z M 85,74.75 c 0.605,0.096 0.308,0.926 0,1.438 -6.517,1.822 -12.267,2.204 -17.25,0.062 L 67.531,75.188 C 73.46,77.379 78.975,76.225 85,74.75 Z m -46.438,1.219 c 1.656,1.369 3.641,2.381 5.594,3.281 3.092,1.321 6.844,2.327 11,2.969 l -0.187,6.375 C 48.407,87.796 41.535,86.048 38.188,81.5 Z m 20.969,0.75 c 1.975,0.227 4.07,0.343 6.25,0.343 0.442,0 1.536,-0.051 1.969,-0.062 0.223,0.357 0.131,0.149 0.531,0.281 l 0.219,1.438 0.062,0.281 0.25,0.094 c 1.994,0.799 4.042,1.248 6.032,1.375 l 1.281,1 c -3.642,0.643 -7.344,0.941 -10.844,1.062 -3.389,0 -6.614,-0.349 -9.625,-0.906 z m 24.157,0.343 0.093,0.407 c -3.192,2.321 -9.103,3.035 -14.406,1 l -0.094,-1.063 c 1.69,0.416 3.825,0.817 5.438,0.844 0.005,0.088 -0.031,0.625 -0.031,0.625 L 75,78.969 c 0,0 -0.03,-0.754 -0.031,-0.781 2.712,-0.066 5.693,-0.3 8.719,-1.126 z m -7.376,5.063 0.032,6.469 c -3.955,0.524 -7.811,0.688 -10.782,0.844 -2.782,-0.23 -6.48,-0.361 -10.312,-0.813 l 0.312,-6.344 c 3.081,0.455 6.371,0.719 9.813,0.719 3.534,-0.129 7.26,-0.327 10.937,-0.875 z m 15.782,1.281 -0.25,8.938 c -2.342,1.107 -4.687,2.038 -7.032,2.812 l -0.906,-7.5 c 2.875,-1.036 5.638,-2.413 8.188,-4.25 z m -50.375,2.063 c 2.083,1.084 4.256,1.9 6.469,2.562 l -0.282,6.75 c -2.001,-0.666 -3.998,-1.395 -5.968,-2.25 z M 83.594,87.781 84.5,95.25 C 78.75,97.113 73.006,97.983 67.312,98 v -7.625 c 5.556,-0.13 11.116,-0.783 16.282,-2.594 z M 48.5,88.125 c 5.511,1.604 11.32,2.117 17.062,2.313 0.48,-0.002 0.958,-0.022 1.438,-0.032 l -0.062,7.625 C 60.612,98.008 54.349,96.883 48.219,94.875 Z m 43.344,4.469 -0.313,11.346 c -4.824,2.03 -9.665,3.65 -14.5,4.65 L 76.5,97.562 c 5.068,-0.898 10.186,-2.534 15.344,-4.968 z m -49.906,0.281 c 4.318,1.878 8.675,3.315 13.062,4.25 l -0.062,11.065 c -4.262,-1.18 -8.492,-3.06 -12.688,-5.81 z m 13.437,4.313 c 6.857,1.416 13.784,1.642 20.813,0.437 l 0.531,11.035 C 69.538,110.1 62.35,110.18 55.25,108.28 Z M 42.25,102.56 c 1.805,1.19 3.606,2.21 5.406,3.1 l -0.031,7.87 c -1.685,-0.94 -3.393,-2.02 -5.125,-3.31 z m 49.281,1.6 -0.187,6.5 c -1.593,0.88 -3.377,1.82 -5.313,2.75 l -0.5,-6.97 c 1.99,-0.69 3.998,-1.44 6,-2.28 z m -43.5,1.68 c 6.049,2.9 12.082,4.16 18.125,4.19 l 0.063,8.28 c -5.89,0.11 -11.929,-1.09 -18.281,-4.59 z m 37.25,0.69 0.5,7 c -4.094,1.93 -8.975,3.72 -14.937,4.47 -1.411,0.18 -2.825,0.27 -4.25,0.31 l -0.063,-8.28 c 6.223,-0.02 12.457,-1.33 18.75,-3.5 z" />
      </g>
    </g>
  </g>
</svg>
