<svg xmlns="http://www.w3.org/2000/svg" xmlns:xlink="http://www.w3.org/1999/xlink" version="1.1" style="shape-rendering:geometricPrecision; text-rendering:geometricPrecision; image-rendering:optimizeQuality; fill-rule:evenodd; clip-rule:evenodd" viewBox="83.5 179.24 323.09 156.26">
<g><path style="opacity:0.978" fill="#5be1e6" d="M 157.5,179.5 C 162.803,178.476 166.136,180.476 167.5,185.5C 164.443,195.617 160.277,205.284 155,214.5C 153.502,217.465 153.335,220.465 154.5,223.5C 160.27,217.449 167.27,213.782 175.5,212.5C 185.007,213.006 189.674,218.006 189.5,227.5C 188.481,234.06 187.147,240.56 185.5,247C 185.292,254.097 188.625,256.43 195.5,254C 201.048,249.048 204.548,242.882 206,235.5C 215.888,216.804 231.055,209.97 251.5,215C 259.706,220.264 262.873,227.764 261,237.5C 258.167,247 252,253.167 242.5,256C 235.717,256.799 229.05,256.299 222.5,254.5C 222.393,256.903 223.393,258.736 225.5,260C 242.26,265.848 256.094,261.682 267,247.5C 273.28,227.276 280.947,207.609 290,188.5C 292.246,184.585 295.412,181.752 299.5,180C 304.791,178.476 308.124,180.309 309.5,185.5C 301.655,203.53 294.488,221.863 288,240.5C 285.659,245.414 286.159,249.914 289.5,254C 295.322,255.503 300.155,254.003 304,249.5C 308.276,238.005 312.943,226.672 318,215.5C 321.9,212.479 326.067,211.979 330.5,214C 330.95,216.501 331.95,218.667 333.5,220.5C 345.402,209.522 356.902,209.856 368,221.5C 372.103,231.62 372.603,241.954 369.5,252.5C 369.833,253.167 370.167,253.833 370.5,254.5C 374.518,252.991 377.851,250.491 380.5,247C 384.508,245.584 386.841,246.918 387.5,251C 383.346,264.248 374.346,271.581 360.5,273C 354.948,280.217 347.948,285.551 339.5,289C 324.101,292.435 316.768,286.268 317.5,270.5C 317.167,270.667 316.833,270.833 316.5,271C 313.846,283.595 310.679,296.095 307,308.5C 305.484,313.391 302.65,317.224 298.5,320C 287.004,321.163 282.504,315.996 285,304.5C 286.706,298.069 288.373,291.736 290,285.5C 288.2,287.317 286.034,288.484 283.5,289C 268.292,292.37 261.125,286.537 262,271.5C 250.766,285.536 236.266,291.369 218.5,289C 208.746,285.575 202.913,278.742 201,268.5C 196.549,276.618 190.383,283.118 182.5,288C 163.8,292.831 156.3,285.664 160,266.5C 162.028,259.613 164.195,252.78 166.5,246C 166.039,242.872 164.205,241.038 161,240.5C 154.771,242.394 150.438,246.394 148,252.5C 146.295,263.174 144.628,273.841 143,284.5C 138.904,289.213 133.737,290.713 127.5,289C 123.835,287.332 121.668,284.499 121,280.5C 119.889,270.618 120.889,260.951 124,251.5C 129.939,233.681 136.273,216.015 143,198.5C 145.875,190.485 150.708,184.151 157.5,179.5 Z M 232.5,230.5 C 241.819,230.658 243.819,234.492 238.5,242C 235.332,244.633 231.998,244.967 228.5,243C 225.141,237.304 226.475,233.137 232.5,230.5 Z M 336.5,236.5 C 348.227,236.783 351.061,242.117 345,252.5C 339.884,258.536 334.55,258.869 329,253.5C 327.703,246.099 330.203,240.432 336.5,236.5 Z"/></g>
<g><path style="opacity:0.954" fill="#5be1e6" d="M 91.5,268.5 C 99.573,266.749 104.24,269.916 105.5,278C 105.533,286.799 101.199,291.632 92.5,292.5C 86.6972,291.697 83.6972,288.364 83.5,282.5C 83.6093,276.272 86.276,271.605 91.5,268.5 Z"/></g>
<g><path style="opacity:0.784" fill="#000000" d="M 387.5,284.5 C 397.748,283.564 403.915,288.231 406,298.5C 407.356,305.576 406.356,312.243 403,318.5C 397.714,323.653 392.214,323.82 386.5,319C 376.959,307.049 377.292,295.549 387.5,284.5 Z M 390.5,288.5 C 397.116,290.698 400.616,295.365 401,302.5C 401.738,306.261 401.405,309.928 400,313.5C 399.241,315.635 397.741,316.968 395.5,317.5C 389.283,315.442 385.783,311.108 385,304.5C 383.966,298.101 385.799,292.768 390.5,288.5 Z"/></g>
<g><path style="opacity:0.666" fill="#fedd57" d="M 352.5,313.5 C 353.833,314.167 353.833,314.833 352.5,315.5C 348.772,315.795 345.105,316.461 341.5,317.5C 345.767,322.627 345.1,327.127 339.5,331C 337.246,332.377 335.08,333.877 333,335.5C 332.333,334.833 332.333,334.167 333,333.5C 336.846,330.988 340.012,327.821 342.5,324C 341.917,321.501 340.584,319.501 338.5,318C 332.543,318.443 326.543,318.943 320.5,319.5C 318.167,319.333 315.833,319.167 313.5,319C 312.5,316.909 313.167,315.243 315.5,314C 319.954,311.689 324.454,309.522 329,307.5C 328.937,294.607 335.104,290.107 347.5,294C 349.396,295.808 349.896,297.975 349,300.5C 344.473,303.097 339.806,305.43 335,307.5C 333.743,307.85 333.409,308.517 334,309.5C 335.719,311.557 337.719,313.224 340,314.5C 344.111,313.596 348.278,313.263 352.5,313.5 Z M 336.5,294.5 C 341.226,293.617 345.226,294.784 348.5,298C 343.486,301.757 337.986,304.591 332,306.5C 330.474,301.239 331.974,297.239 336.5,294.5 Z M 329.5,309.5 C 331.886,310.373 333.886,311.873 335.5,314C 329.393,316.184 323.059,317.184 316.5,317C 320.602,313.954 324.935,311.454 329.5,309.5 Z"/></g>
<g><path style="opacity:0.76" fill="#000000" d="M 352.5,315.5 C 353.833,314.833 353.833,314.167 352.5,313.5C 352.143,304.374 355.81,297.541 363.5,293C 375.046,291.569 378.88,296.402 375,307.5C 374.282,308.451 373.449,308.617 372.5,308C 371.22,294.04 366.72,292.873 359,304.5C 356.875,310.298 357.208,315.965 360,321.5C 366.163,325.686 370.33,324.019 372.5,316.5C 369.215,315.676 365.882,315.176 362.5,315C 361.167,314 361.167,313 362.5,312C 367.446,310.905 372.446,310.071 377.5,309.5C 381.184,310.735 381.35,312.401 378,314.5C 377.594,323.375 373.094,328.375 364.5,329.5C 357.334,327.66 353.334,322.993 352.5,315.5 Z"/></g>
</svg>